<svg width="14" height="14" viewBox="0 0 14 14" fill="none" xmlns="http://www.w3.org/2000/svg">
<path fill-rule="evenodd" clip-rule="evenodd" d="M7.00002 11.6667C9.57735 11.6667 11.6667 9.57733 11.6667 7C11.6667 4.42268 9.57735 2.33334 7.00002 2.33334C4.42269 2.33334 2.33335 4.42268 2.33335 7C2.33335 9.57733 4.42269 11.6667 7.00002 11.6667ZM7.00002 12.8333C10.2217 12.8333 12.8334 10.2217 12.8334 7C12.8334 3.77834 10.2217 1.16667 7.00002 1.16667C3.77836 1.16667 1.16669 3.77834 1.16669 7C1.16669 10.2217 3.77836 12.8333 7.00002 12.8333Z" fill="#47525B"/>
<path d="M7.00002 4.08334C6.67785 4.08334 6.41669 4.34451 6.41669 4.66667V7.58334C6.41669 7.9055 6.67785 8.16667 7.00002 8.16667H9.33335C9.65552 8.16667 9.91669 7.9055 9.91669 7.58334C9.91669 7.26117 9.65552 7 9.33335 7H7.58335V4.66667C7.58335 4.34451 7.32219 4.08334 7.00002 4.08334Z" fill="#47525B"/>
</svg>
