<svg width="50" height="50" viewBox="0 0 50 50" fill="none" xmlns="http://www.w3.org/2000/svg">
<path fill-rule="evenodd" clip-rule="evenodd" d="M10.4167 12.5C9.26606 12.5 8.33332 13.4327 8.33332 14.5833V35.4167C8.33332 36.5673 9.26606 37.5 10.4167 37.5H39.5833C40.7339 37.5 41.6667 36.5673 41.6667 35.4167V23.9583C41.6667 22.8077 40.7339 21.875 39.5833 21.875H35.5633C33.4735 21.875 31.5221 20.8306 30.3629 19.0919L26.5868 13.4277C26.2004 12.8481 25.55 12.5 24.8534 12.5H10.4167ZM4.16666 14.5833C4.16666 11.1315 6.96488 8.33333 10.4167 8.33333H24.8534C26.9431 8.33333 28.8945 9.37771 30.0537 11.1165L33.8298 16.7806C34.2162 17.3602 34.8667 17.7083 35.5633 17.7083H39.5833C43.0351 17.7083 45.8333 20.5065 45.8333 23.9583V35.4167C45.8333 38.8684 43.0351 41.6667 39.5833 41.6667H10.4167C6.96488 41.6667 4.16666 38.8684 4.16666 35.4167V14.5833Z" fill="#355EFF"/>
</svg>
