<svg width="50" height="50" viewBox="0 0 50 50" fill="none" xmlns="http://www.w3.org/2000/svg">
<path fill-rule="evenodd" clip-rule="evenodd" d="M6.25 6.23483C6.25 5.09262 7.18158 4.16667 8.33074 4.16667H27.0574C28.2066 4.16667 29.1382 5.09262 29.1382 6.23483V31.0527C29.1382 32.1949 28.2066 33.1209 27.0574 33.1209H8.33074C7.18158 33.1209 6.25 32.1949 6.25 31.0527V6.23483ZM10.4115 8.30298V28.9846H24.9767V8.30298H10.4115Z" fill="#355EFF"/>
<path fill-rule="evenodd" clip-rule="evenodd" d="M33.3714 15.0015C33.6717 13.899 34.8144 13.2472 35.9236 13.5456L44.2958 15.7985C45.403 16.0964 46.0588 17.2287 45.7619 18.33L38.761 44.2999C38.4635 45.4032 37.3226 46.058 36.2126 45.7623L20.2761 41.518C19.1661 41.2224 18.5074 40.0884 18.8048 38.9851C19.1023 37.8818 20.2432 37.227 21.3532 37.5227L35.2798 41.2317L41.2051 19.252L34.8361 17.5382C33.7269 17.2398 33.0711 16.104 33.3714 15.0015Z" fill="#355EFF"/>
</svg>
