<svg width="20" height="20" viewBox="0 0 20 20" fill="none" xmlns="http://www.w3.org/2000/svg">
<path d="M13.4028 4.21936C12.3728 3.69051 11.225 3.33328 9.99963 3.33328C7.79653 3.33328 5.84421 4.48801 4.3761 5.71882C2.89376 6.96156 1.79697 8.37257 1.29019 9.07745C0.891551 9.63193 0.891551 10.368 1.29019 10.9224C1.732 11.537 2.62226 12.6882 3.82546 13.7967L5.00506 12.6171C3.92434 11.6308 3.105 10.5863 2.67982 9.99995C3.16119 9.33607 4.14776 8.08515 5.44687 6.99603C6.79387 5.86675 8.37114 4.99995 9.99963 4.99995C10.7325 4.99995 11.4549 5.17548 12.1507 5.47147L13.4028 4.21936Z" fill="#404B58" fill-opacity="0.4"/>
<path fill-rule="evenodd" clip-rule="evenodd" d="M17.2522 2.75592C17.5778 2.43028 18.1058 2.43028 18.4314 2.75592C18.7571 3.08155 18.7571 3.60953 18.4314 3.93517L16.1684 6.19822C17.3743 7.30827 18.2666 8.46201 18.7091 9.07745C19.1077 9.63193 19.1077 10.368 18.7091 10.9224C18.2023 11.6273 17.1055 13.0383 15.6232 14.2811C14.155 15.5119 12.2027 16.6666 9.99963 16.6666C8.77154 16.6666 7.62137 16.3078 6.58957 15.777L5.09268 17.2739C4.76705 17.5995 4.23908 17.5995 3.91344 17.2739C3.58781 16.9483 3.58781 16.4203 3.91344 16.0946C3.91344 16.0946 15.5794 4.42872 17.2522 2.75592ZM14.9887 7.37783L13.2224 9.14414C13.2948 9.41724 13.3333 9.70409 13.3333 9.99995C13.3333 11.8409 11.8409 13.3333 10 13.3333C9.70414 13.3333 9.41728 13.2947 9.14417 13.2224L7.84126 14.5253C8.53928 14.8232 9.26423 14.9999 9.99963 14.9999C11.6281 14.9999 13.2054 14.1332 14.5524 13.0039C15.8515 11.9147 16.8381 10.6638 17.3194 9.99995C16.8935 9.41257 16.0722 8.36565 14.9887 7.37783Z" fill="#404B58" fill-opacity="0.4"/>
<path d="M10.847 6.77518C10.5765 6.70434 10.2927 6.66662 10 6.66662C8.15905 6.66662 6.66667 8.159 6.66667 9.99995C6.66667 10.2926 6.70438 10.5765 6.77522 10.8469L10.847 6.77518Z" fill="#404B58" fill-opacity="0.4"/>
</svg>
