<svg width="20" height="20" viewBox="0 0 20 20" fill="none" xmlns="http://www.w3.org/2000/svg">
<path fill-rule="evenodd" clip-rule="evenodd" d="M2.68031 10C3.16168 10.6639 4.14825 11.9148 5.44735 13.0039C6.79436 14.1332 8.37163 15 10.0001 15C11.6286 15 13.2059 14.1332 14.5529 13.0039C15.852 11.9148 16.8386 10.6639 17.3199 10C16.8386 9.33613 15.852 8.08521 14.5529 6.99608C13.2059 5.8668 11.6286 5.00001 10.0001 5.00001C8.37163 5.00001 6.79436 5.8668 5.44735 6.99608C4.14825 8.08521 3.16168 9.33613 2.68031 10ZM4.37659 5.71888C5.8447 4.48808 7.79702 3.33334 10.0001 3.33334C12.2032 3.33334 14.1555 4.48808 15.6236 5.71888C17.106 6.96162 18.2028 8.37263 18.7096 9.07751C19.1082 9.63199 19.1082 10.368 18.7096 10.9225C18.2028 11.6274 17.106 13.0384 15.6236 14.2811C14.1555 15.5119 12.2032 16.6667 10.0001 16.6667C7.79702 16.6667 5.8447 15.5119 4.37659 14.2811C2.89425 13.0384 1.79746 11.6274 1.29068 10.9225C0.89204 10.368 0.892039 9.63199 1.29068 9.07751C1.79746 8.37263 2.89425 6.96162 4.37659 5.71888Z" fill="#404B58" fill-opacity="0.4"/>
<path fill-rule="evenodd" clip-rule="evenodd" d="M10.0001 11.6667C10.9206 11.6667 11.6668 10.9205 11.6668 10C11.6668 9.07954 10.9206 8.33334 10.0001 8.33334C9.07964 8.33334 8.33345 9.07954 8.33345 10C8.33345 10.9205 9.07964 11.6667 10.0001 11.6667ZM10.0001 13.3333C11.8411 13.3333 13.3334 11.841 13.3334 10C13.3334 8.15906 11.8411 6.66668 10.0001 6.66668C8.15917 6.66668 6.66678 8.15906 6.66678 10C6.66678 11.841 8.15917 13.3333 10.0001 13.3333Z" fill="#404B58" fill-opacity="0.4"/>
</svg>
