<svg width="36" height="36" viewBox="0 0 36 36" fill="none" xmlns="http://www.w3.org/2000/svg">
<path fill-rule="evenodd" clip-rule="evenodd" d="M4.5 4.5C2.84315 4.5 1.5 5.84315 1.5 7.5V24C1.5 25.6569 2.84315 27 4.5 27H15C15.8284 27 16.5 26.3284 16.5 25.5C16.5 24.6716 15.8284 24 15 24H4.5V7.5H28.5V12.15C28.0153 12.0516 27.5137 12 27 12C22.8579 12 19.5 15.3579 19.5 19.5C19.5 21.9537 20.6783 24.1322 22.5 25.5005V32.6893C22.5 33.3575 23.3079 33.6921 23.7803 33.2197L26.4697 30.5303C26.7626 30.2374 27.2374 30.2374 27.5303 30.5303L30.2197 33.2197C30.6921 33.6921 31.5 33.3575 31.5 32.6893V25.5005C33.3217 24.1322 34.5 21.9537 34.5 19.5C34.5 17.0463 33.3217 14.8678 31.5 13.4995V7.5C31.5 5.84314 30.1569 4.5 28.5 4.5H4.5ZM27 15C27.526 15 28.0308 15.0902 28.5 15.2561C30.2478 15.8738 31.5 17.5407 31.5 19.5C31.5 21.9853 29.4853 24 27 24C24.6956 24 22.7957 22.2678 22.5314 20.0345C22.5107 19.8592 22.5 19.6809 22.5 19.5C22.5 17.0147 24.5147 15 27 15Z" fill="#F29559"/>
<path d="M9 10.5C8.17157 10.5 7.5 11.1716 7.5 12C7.5 12.8284 8.17157 13.5 9 13.5H18C18.8284 13.5 19.5 12.8284 19.5 12C19.5 11.1716 18.8284 10.5 18 10.5H9Z" fill="#F29559"/>
<path d="M7.5 18C7.5 17.1716 8.17157 16.5 9 16.5H13.5C14.3284 16.5 15 17.1716 15 18C15 18.8284 14.3284 19.5 13.5 19.5H9C8.17157 19.5 7.5 18.8284 7.5 18Z" fill="#F29559"/>
</svg>
